<?xml version="1.0" standalone="no"?>
<!DOCTYPE svg PUBLIC "-//W3C//DTD SVG 20010904//EN"
 "http://www.w3.org/TR/2001/REC-SVG-20010904/DTD/svg10.dtd">
<svg version="1.0" xmlns="http://www.w3.org/2000/svg"
 width="512.000000pt" height="512.000000pt" viewBox="0 0 512.000000 512.000000"
 preserveAspectRatio="xMidYMid meet">
<metadata>
Created by potrace 1.14, written by Peter Selinger 2001-2017
</metadata>
<g transform="translate(0.000000,512.000000) scale(0.100000,-0.100000)"
fill="#000000" stroke="none">
<path d="M562 4608 c-17 -17 -17 -4339 0 -4356 7 -7 18 -12 25 -12 8 0 227
213 487 474 l474 474 0 1028 c1 566 1 1043 2 1060 0 27 72 103 630 660 438
437 630 636 630 650 0 12 -7 25 -16 28 -9 3 -512 6 -1118 6 -844 0 -1105 -3
-1114 -12z"/>
<path d="M3592 4566 c-31 -30 -379 -376 -772 -770 l-715 -715 -5 -626 c-3
-344 -2 -635 2 -646 4 -10 17 -19 28 -19 27 0 2800 2772 2800 2799 0 10 -7 22
-16 25 -9 3 -297 6 -641 6 l-624 0 -57 -54z"/>
</g>
</svg>
